Coordinates
version=1
nRows=16
nColumns=40
inDegrees=yes

Units are S.I. units (second, meters, Newtons, ...)
Angles are in degrees.

endheader
time	pelvis_tilt	pelvis_list	pelvis_rotation	pelvis_tx	pelvis_ty	pelvis_tz	hip_flexion_r	hip_adduction_r	hip_rotation_r	knee_angle_r	knee_angle_r_beta	ankle_angle_r	subtalar_angle_r	mtp_angle_r	hip_flexion_l	hip_adduction_l	hip_rotation_l	knee_angle_l	knee_angle_l_beta	ankle_angle_l	subtalar_angle_l	mtp_angle_l	lumbar_extension	lumbar_bending	lumbar_rotation	arm_flex_r	arm_add_r	arm_rot_r	elbow_flex_r	pro_sup_r	wrist_flex_r	wrist_dev_r	arm_flex_l	arm_add_l	arm_rot_l	elbow_flex_l	pro_sup_l	wrist_flex_l	wrist_dev_l
     45.05000000	     -3.95676130	     -5.07725290	      2.30418137	      0.96601009	      0.92900396	      0.49134184	     14.41580840	      3.47539604	    -13.05277976	     18.01610782	     18.01610782	      9.78521853	     -2.16765823	     -3.58084278	     29.67665253	     -9.10249698	      5.19109661	     62.88717080	     62.88717080	      6.61136862	    -15.59017136	      6.72120249	     -9.74610740	      6.10664405	      1.87673030	     18.74465544	    -15.82556662	      1.67447257	     43.87060056	     44.88991575	      0.00000000	      0.00000000	      7.35746009	     -8.20387096	     -7.35417759	     32.58113717	     44.75730036	      0.00000000	      0.00000000
     45.06292857	     -4.11560465	     -4.96449992	      2.65421774	      0.96412734	      0.92941003	      0.49178562	     13.99856625	      3.43779734	    -13.14174488	     17.57065603	     17.57065603	      9.93003883	     -2.27990689	     -3.55915421	     30.85974983	     -8.88660943	      5.03154231	     60.12411789	     60.12411789	      6.94854451	    -16.72033219	      6.86643732	     -9.81759382	      5.82321714	      1.72793129	     20.84523836	    -15.74582882	      1.54497655	     45.18855019	     44.86907081	      0.00000000	      0.00000000	      6.20939941	     -7.91652726	     -7.18236668	     31.48898443	     44.73945587	      0.00000000	      0.00000000
     45.07585714	     -4.31441013	     -4.85021464	      2.95917191	      0.96222631	      0.92967385	      0.49223760	     13.66355149	      3.39186368	    -13.20844772	     17.19397832	     17.19397832	     10.09491175	     -2.38721110	     -3.56534272	     31.86068274	     -8.72282603	      4.69829666	     57.01534056	     57.01534056	      7.36497246	    -17.37374231	      7.12186374	     -9.86109952	      5.55096574	      1.83484341	     22.83354507	    -15.84619813	      1.38719026	     46.44871775	     44.84728336	      0.00000000	      0.00000000	      5.14742151	     -7.57109951	     -7.05027530	     30.59496812	     44.71934133	      0.00000000	      0.00000000
     45.08878571	     -4.41814726	     -4.74371628	      3.33548459	      0.96045836	      0.93007185	      0.49255079	     13.19434609	      3.35199052	    -13.35672284	     16.76447908	     16.76447908	     10.22045574	     -2.51678684	     -3.57963405	     32.51305393	     -8.44897483	      4.46637150	     53.53551183	     53.53551183	      7.72734441	    -17.87376627	      7.55888157	    -10.00680298	      5.32447438	      1.53781912	     24.80116458	    -15.67205605	      1.24550862	     48.17902367	     44.80975046	      0.00000000	      0.00000000	      4.08428020	     -7.38280090	     -6.88659697	     29.33846402	     44.70310622	      0.00000000	      0.00000000
     45.10171429	     -4.69970615	     -4.82463478	      3.64562457	      0.95859616	      0.92988953	      0.49287359	     13.07795700	      3.46647296	    -13.53513525	     16.59668642	     16.59668642	     10.39317006	     -2.64637490	     -3.63939367	     33.31432197	     -8.38141340	      4.20953260	     50.03845622	     50.03845622	      8.27456395	    -17.71607213	      7.93757153	     -9.89988101	      5.28784855	      1.94535748	     26.60985013	    -16.09580596	      1.03372066	     49.14504184	     44.79745921	      0.00000000	      0.00000000	      3.15150932	     -6.95810111	     -6.80172931	     28.76029060	     44.68293521	      0.00000000	      0.00000000
     45.11464286	     -4.74870250	     -4.56491908	      3.97201238	      0.95695050	      0.93035820	      0.49285392	     12.51110872	      3.25512910	    -13.61515363	     16.11081727	     16.11081727	     10.52523940	     -2.65626257	     -3.68020698	     33.45101862	     -7.74319512	      4.09493675	     46.06520934	     46.06520934	      8.61445107	    -17.93066273	      8.62230441	    -10.18417121	      4.91147214	      1.41558439	     28.43920876	    -15.68223451	      0.84770941	     51.41038116	     44.74361829	      0.00000000	      0.00000000	      2.13615697	     -6.86169429	     -6.60198787	     27.30085450	     44.66702674	      0.00000000	      0.00000000
     45.12757143	     -4.98372641	     -4.44948207	      4.24625225	      0.95522550	      0.93029282	      0.49277648	     12.28857872	      3.14773525	    -13.72848376	     15.87089793	     15.87089793	     10.71176935	     -2.69913632	     -3.76497230	     33.77884500	     -7.25954087	      3.98630455	     42.17430752	     42.17430752	      9.00986855	    -17.48948878	      9.07032385	    -10.18754566	      4.68681950	      1.55960304	     30.02705742	    -15.81834758	      0.61219244	     52.91590324	     44.71550493	      0.00000000	      0.00000000	      1.26816940	     -6.60823595	     -6.47916085	     26.49287849	     44.65249842	      0.00000000	      0.00000000
     45.14050000	     -5.20582620	     -4.40827675	      4.55331679	      0.95355306	      0.93012729	      0.49250924	     12.05894882	      3.06960791	    -14.07460953	     15.64741724	     15.64741724	     10.87644170	     -2.45299323	     -3.96506013	     33.99376548	     -6.73062307	      4.14535873	     38.25865149	     38.25865149	      9.20674532	    -16.92294342	      8.99656088	    -10.24217321	      4.58936363	      1.60109733	     31.11175380	    -15.97465836	      0.05658007	     56.04874878	     44.66074438	      0.00000000	      0.00000000	      0.59816449	     -6.34409118	     -6.13435992	     25.20517496	     44.65012711	      0.00000000	      0.00000000
     45.15342857	     -5.35805467	     -4.29407487	      4.78105111	      0.95208826	      0.93001747	      0.49218778	     11.79153905	      2.94843970	    -14.16584770	     15.53072720	     15.53072720	     11.12375217	     -2.55883128	     -4.02757925	     33.99411825	     -6.20862827	      4.11507764	     34.40779276	     34.40779276	      9.64425813	    -15.73187175	      9.14730697	    -10.28637089	      4.35327376	      1.79942447	     32.52496987	    -16.10913963	     -0.26164862	     57.36992748	     44.64427395	      0.00000000	      0.00000000	     -0.24845888	     -6.17517840	     -6.01659397	     24.76786520	     44.63516479	      0.00000000	      0.00000000
     45.16635714	     -5.66386828	     -4.39044560	      5.07137104	      0.95048029	      0.92950644	      0.49167708	     11.74010803	      3.00676607	    -14.34744946	     15.45102356	     15.45102356	     11.30999466	     -2.62071686	     -4.10006484	     34.28707769	     -5.81062498	      4.34923611	     30.94467178	     30.94467178	      9.95380331	    -14.28257013	      9.37179119	    -10.16665497	      4.42971576	      1.96292531	     34.03315580	    -16.33404018	     -0.54095326	     58.42406378	     44.63010262	      0.00000000	      0.00000000	     -1.08353521	     -5.88992890	     -5.94480254	     24.43851398	     44.61543744	      0.00000000	      0.00000000
     45.17928571	     -5.78602282	     -4.25122315	      5.27690149	      0.94926223	      0.92936241	      0.49109481	     11.39587368	      2.84237312	    -14.43133491	     15.29347992	     15.29347992	     11.57942954	     -2.53676479	     -4.15872221	     34.14093946	     -5.29376474	      4.25964497	     27.54176162	     27.54176162	     10.27410670	    -12.57635559	      9.51277841	    -10.26921696	      4.16459433	      1.78885988	     35.30371007	    -16.05191115	     -0.81892790	     60.01442058	     44.59810300	      0.00000000	      0.00000000	     -2.05563556	     -5.80954789	     -5.84863579	     24.10672584	     44.59287943	      0.00000000	      0.00000000
     45.19221429	     -5.97518238	     -4.38034188	      5.52396169	      0.94807241	      0.92878194	      0.49039011	     11.18335505	      2.94096677	    -14.66326737	     15.21328771	     15.21328771	     11.87571456	     -2.52787474	     -4.24563808	     34.30911488	     -4.98876654	      4.39155882	     24.86736180	     24.86736180	     10.51477010	    -11.05955621	      9.68103944	    -10.16698176	      4.30342197	      1.86847328	     36.64818434	    -16.06439089	     -1.10722751	     61.29333096	     44.57580227	      0.00000000	      0.00000000	     -2.94838942	     -5.61928545	     -5.78309015	     23.89691305	     44.57159677	      0.00000000	      0.00000000
     45.20514286	     -6.01833971	     -4.32342700	      5.70417713	      0.94725599	      0.92859652	      0.48964574	     10.71169242	      2.86907935	    -14.79772283	     15.02784676	     15.02784676	     12.17696840	     -2.33245003	     -4.27690429	     34.13893390	     -4.63933794	      4.05236552	     22.42607561	     22.42607561	     10.68127857	     -9.44334508	      9.85062439	    -10.28710759	      4.11958832	      1.63350727	     37.62192580	    -15.66511935	     -1.43214972	     63.15258897	     44.53615215	      0.00000000	      0.00000000	     -3.94251176	     -5.55867580	     -5.68463952	     23.82331886	     44.54580687	      0.00000000	      0.00000000
     45.21807143	     -6.07973789	     -4.45467717	      5.87934713	      0.94660272	      0.92809849	      0.48881601	     10.26292158	      2.97101717	    -15.13478460	     14.85552568	     14.85552568	     12.61554409	     -1.84192558	     -4.12888596	     34.24805838	     -4.50269615	      3.65425803	     20.90158754	     20.90158754	     10.79802597	     -8.03471810	      9.80538392	    -10.40461110	      4.22637258	      2.03135897	     37.64234563	    -15.85591274	     -2.67540038	     67.16637723	     44.49179144	      0.00000000	      0.00000000	     -5.10023025	     -5.56648074	     -5.09404167	     24.98251487	     44.47295704	      0.00000000	      0.00000000
     45.23100000	     -6.16943057	     -4.53501699	      6.00442264	      0.94611651	      0.92760009	      0.48792378	      9.84650248	      3.05485660	    -15.17468520	     14.68702004	     14.68702004	     12.91923816	     -1.82565132	     -4.14937623	     34.28504805	     -4.29439387	      3.40518505	     19.74805408	     19.74805408	     10.73307101	     -7.44960821	     10.00164574	    -10.32697340	      4.22641475	      2.05366953	     38.59257146	    -15.69981551	     -2.85018175	     68.10724258	     44.47874642	      0.00000000	      0.00000000	     -5.83084481	     -5.47015788	     -4.93616923	     24.73688001	     44.44528583	      0.00000000	      0.00000000
     45.24392857	     -6.23364939	     -4.64503474	      6.08809660	      0.94589824	      0.92704686	      0.48701149	      9.35576060	      3.18366629	    -15.20486578	     14.46253152	     14.46253152	     13.22868284	     -1.68212536	     -4.16399028	     34.33910014	     -4.17768452	      3.07509066	     19.20942867	     19.20942867	     10.54451597	     -7.16573563	     10.10219145	    -10.22781440	      4.28106715	      2.05644310	     39.47072245	    -15.49869066	     -3.04221623	     69.18850331	     44.45989584	      0.00000000	      0.00000000	     -6.61739919	     -5.38086149	     -4.82373824	     24.55750399	     44.42161529	      0.00000000	      0.00000000
